<svg xmlns="http://www.w3.org/2000/svg" width="1024" height="640" viewBox="0 0 1024 640">
  <defs>
    <linearGradient id="hero" x1="0" y1="0" x2="1" y2="1">
      <stop offset="0" stop-color="#6d28d9"/><stop offset="1" stop-color="#2563eb"/>
    </linearGradient>
  </defs>
  <rect width="1024" height="640" fill="#0f172a"/>
  <!-- nav -->
  <rect width="1024" height="64" fill="#111827"/>
  <circle cx="44" cy="32" r="12" fill="#a78bfa"/>
  <rect x="64" y="26" width="90" height="12" rx="6" fill="#e5e7eb"/>
  <rect x="720" y="24" width="60" height="16" rx="8" fill="#374151"/>
  <rect x="800" y="24" width="60" height="16" rx="8" fill="#374151"/>
  <rect x="884" y="22" width="110" height="20" rx="10" fill="#a78bfa"/>
  <!-- hero -->
  <rect y="64" width="1024" height="380" fill="url(#hero)"/>
  <rect x="120" y="170" width="430" height="34" rx="8" fill="#ffffff"/>
  <rect x="120" y="220" width="360" height="34" rx="8" fill="#ffffff" opacity="0.92"/>
  <rect x="120" y="290" width="320" height="20" rx="6" fill="#e9d5ff"/>
  <rect x="120" y="320" width="280" height="20" rx="6" fill="#e9d5ff"/>
  <rect x="120" y="372" width="150" height="44" rx="22" fill="#ffffff"/>
  <rect x="290" y="372" width="150" height="44" rx="22" fill="#1e293b"/>
  <rect x="620" y="150" width="300" height="240" rx="18" fill="#ffffff" opacity="0.15"/>
  <!-- cards -->
  <g>
    <rect x="120" y="486" width="240" height="120" rx="14" fill="#1e293b"/>
    <rect x="392" y="486" width="240" height="120" rx="14" fill="#1e293b"/>
    <rect x="664" y="486" width="240" height="120" rx="14" fill="#1e293b"/>
    <circle cx="156" cy="522" r="14" fill="#a78bfa"/>
    <circle cx="428" cy="522" r="14" fill="#60a5fa"/>
    <circle cx="700" cy="522" r="14" fill="#34d399"/>
    <rect x="184" y="516" width="120" height="12" rx="6" fill="#e5e7eb"/>
    <rect x="456" y="516" width="120" height="12" rx="6" fill="#e5e7eb"/>
    <rect x="728" y="516" width="120" height="12" rx="6" fill="#e5e7eb"/>
  </g>
  <text x="512" y="632" font-family="sans-serif" font-size="11" fill="#64748b" text-anchor="middle">샘플 목표 #1 — 보라/파랑 히어로 랜딩 페이지 (image_1)</text>
</svg>
