<svg xmlns="http://www.w3.org/2000/svg" width="1024" height="640" viewBox="0 0 1024 640">
  <rect width="1024" height="640" fill="#f1f5f9"/>
  <!-- sidebar -->
  <rect width="220" height="640" fill="#0f172a"/>
  <circle cx="40" cy="44" r="14" fill="#22c55e"/>
  <rect x="62" y="38" width="100" height="12" rx="6" fill="#e5e7eb"/>
  <rect x="24" y="100" width="172" height="34" rx="8" fill="#1e293b"/>
  <rect x="24" y="144" width="172" height="34" rx="8" fill="#22c55e"/>
  <rect x="24" y="188" width="172" height="34" rx="8" fill="#1e293b"/>
  <rect x="24" y="232" width="172" height="34" rx="8" fill="#1e293b"/>
  <!-- topbar -->
  <rect x="220" width="804" height="64" fill="#ffffff"/>
  <rect x="252" y="24" width="160" height="16" rx="8" fill="#0f172a"/>
  <circle cx="980" cy="32" r="16" fill="#cbd5e1"/>
  <!-- stat cards -->
  <g>
    <rect x="252" y="96" width="220" height="110" rx="14" fill="#ffffff"/>
    <rect x="492" y="96" width="220" height="110" rx="14" fill="#ffffff"/>
    <rect x="732" y="96" width="260" height="110" rx="14" fill="#ffffff"/>
    <rect x="276" y="120" width="80" height="12" rx="6" fill="#94a3b8"/>
    <rect x="276" y="146" width="120" height="24" rx="6" fill="#0f172a"/>
    <rect x="516" y="120" width="80" height="12" rx="6" fill="#94a3b8"/>
    <rect x="516" y="146" width="120" height="24" rx="6" fill="#0f172a"/>
    <rect x="756" y="120" width="80" height="12" rx="6" fill="#94a3b8"/>
    <rect x="756" y="146" width="120" height="24" rx="6" fill="#0f172a"/>
  </g>
  <!-- chart -->
  <rect x="252" y="230" width="500" height="360" rx="16" fill="#ffffff"/>
  <polyline points="280,520 360,460 440,490 520,400 600,430 680,360 720,380" fill="none" stroke="#22c55e" stroke-width="4"/>
  <rect x="280" y="540" width="440" height="2" fill="#e2e8f0"/>
  <!-- list -->
  <rect x="772" y="230" width="220" height="360" rx="16" fill="#ffffff"/>
  <rect x="796" y="262" width="120" height="14" rx="7" fill="#0f172a"/>
  <g fill="#e2e8f0">
    <rect x="796" y="300" width="172" height="40" rx="8"/>
    <rect x="796" y="350" width="172" height="40" rx="8"/>
    <rect x="796" y="400" width="172" height="40" rx="8"/>
  </g>
  <text x="620" y="624" font-family="sans-serif" font-size="11" fill="#94a3b8" text-anchor="middle">샘플 목표 #2 — 사이드바 + 통계 카드 대시보드 (image_2)</text>
</svg>
